<mxfile host="Electron" agent="Mozilla/5.0 (Windows NT 10.0; Win64; x64) AppleWebKit/537.36 (KHTML, like Gecko) draw.io/24.7.5 Chrome/126.0.6478.183 Electron/31.3.0 Safari/537.36" version="24.7.5">
  <diagram name="Page-1" id="OHAWIZGEzR0WurvWpqZ9">
    <mxGraphModel dx="1290" dy="629" grid="1" gridSize="10" guides="1" tooltips="1" connect="1" arrows="1" fold="1" page="1" pageScale="1" pageWidth="850" pageHeight="1100" math="0" shadow="0">
      <root>
        <mxCell id="0" />
        <mxCell id="1" parent="0" />
        <mxCell id="EzXioo47F4SOr7nf9TOk-4" value="Horizontal&lt;br&gt;Container" style="rounded=0;whiteSpace=wrap;html=1;sketch=1;hachureGap=4;jiggle=2;curveFitting=1;fontFamily=Architects Daughter;fontSource=https%3A%2F%2Ffonts.googleapis.com%2Fcss%3Ffamily%3DArchitects%2BDaughter;strokeColor=#5d6ef4;strokeWidth=2;" parent="1" vertex="1">
          <mxGeometry x="30" y="280" width="120" height="60" as="geometry" />
        </mxCell>
        <mxCell id="EzXioo47F4SOr7nf9TOk-5" value="Verticall&lt;br&gt;Container" style="rounded=0;whiteSpace=wrap;html=1;sketch=1;hachureGap=4;jiggle=2;curveFitting=1;fontFamily=Architects Daughter;fontSource=https%3A%2F%2Ffonts.googleapis.com%2Fcss%3Ffamily%3DArchitects%2BDaughter;strokeColor=#ff7b00;strokeWidth=2;" parent="1" vertex="1">
          <mxGeometry x="160" y="280" width="120" height="60" as="geometry" />
        </mxCell>
        <mxCell id="EzXioo47F4SOr7nf9TOk-6" value="Object" style="rounded=0;whiteSpace=wrap;html=1;sketch=1;hachureGap=4;jiggle=2;curveFitting=1;fontFamily=Architects Daughter;fontSource=https%3A%2F%2Ffonts.googleapis.com%2Fcss%3Ffamily%3DArchitects%2BDaughter;strokeColor=#bababa;strokeWidth=2;" parent="1" vertex="1">
          <mxGeometry x="290" y="280" width="120" height="60" as="geometry" />
        </mxCell>
        <mxCell id="EzXioo47F4SOr7nf9TOk-7" value="Horizontal&lt;br&gt;Container" style="rounded=0;whiteSpace=wrap;html=1;sketch=1;hachureGap=4;jiggle=2;curveFitting=1;fontFamily=Architects Daughter;fontSource=https%3A%2F%2Ffonts.googleapis.com%2Fcss%3Ffamily%3DArchitects%2BDaughter;strokeColor=#5d6ef4;strokeWidth=2;" parent="1" vertex="1">
          <mxGeometry x="30" y="390" width="770" height="410" as="geometry" />
        </mxCell>
        <mxCell id="EzXioo47F4SOr7nf9TOk-8" value="Whole Dashboard" style="text;html=1;align=center;verticalAlign=middle;whiteSpace=wrap;rounded=0;fontFamily=Architects Daughter;fontSource=https%3A%2F%2Ffonts.googleapis.com%2Fcss%3Ffamily%3DArchitects%2BDaughter;" parent="1" vertex="1">
          <mxGeometry x="17" y="370" width="120" height="25" as="geometry" />
        </mxCell>
        <mxCell id="EzXioo47F4SOr7nf9TOk-9" value="" style="rounded=0;whiteSpace=wrap;html=1;sketch=1;hachureGap=4;jiggle=2;curveFitting=1;fontFamily=Architects Daughter;fontSource=https%3A%2F%2Ffonts.googleapis.com%2Fcss%3Ffamily%3DArchitects%2BDaughter;strokeColor=#ff7b00;strokeWidth=2;" parent="1" vertex="1">
          <mxGeometry x="51.25" y="410" width="120" height="380" as="geometry" />
        </mxCell>
        <mxCell id="EzXioo47F4SOr7nf9TOk-10" value="" style="rounded=0;whiteSpace=wrap;html=1;sketch=1;hachureGap=4;jiggle=2;curveFitting=1;fontFamily=Architects Daughter;fontSource=https%3A%2F%2Ffonts.googleapis.com%2Fcss%3Ffamily%3DArchitects%2BDaughter;strokeColor=#ff7b00;strokeWidth=2;" parent="1" vertex="1">
          <mxGeometry x="180" y="410" width="600" height="380" as="geometry" />
        </mxCell>
        <mxCell id="EzXioo47F4SOr7nf9TOk-11" value="Navigation" style="text;html=1;align=center;verticalAlign=middle;whiteSpace=wrap;rounded=0;fontFamily=Architects Daughter;fontSource=https%3A%2F%2Ffonts.googleapis.com%2Fcss%3Ffamily%3DArchitects%2BDaughter;" parent="1" vertex="1">
          <mxGeometry x="20" y="390" width="117" height="25" as="geometry" />
        </mxCell>
        <mxCell id="EzXioo47F4SOr7nf9TOk-12" value="Header + Charts" style="text;html=1;align=center;verticalAlign=middle;whiteSpace=wrap;rounded=0;fontFamily=Architects Daughter;fontSource=https%3A%2F%2Ffonts.googleapis.com%2Fcss%3Ffamily%3DArchitects%2BDaughter;" parent="1" vertex="1">
          <mxGeometry x="170" y="390" width="120" height="25" as="geometry" />
        </mxCell>
        <mxCell id="EzXioo47F4SOr7nf9TOk-13" value="Logo" style="rounded=0;whiteSpace=wrap;html=1;sketch=1;hachureGap=4;jiggle=2;curveFitting=1;fontFamily=Architects Daughter;fontSource=https%3A%2F%2Ffonts.googleapis.com%2Fcss%3Ffamily%3DArchitects%2BDaughter;strokeColor=#bababa;strokeWidth=2;" parent="1" vertex="1">
          <mxGeometry x="76.25" y="460" width="70" height="30" as="geometry" />
        </mxCell>
        <mxCell id="EzXioo47F4SOr7nf9TOk-17" value="Icon" style="rounded=0;whiteSpace=wrap;html=1;sketch=1;hachureGap=4;jiggle=2;curveFitting=1;fontFamily=Architects Daughter;fontSource=https%3A%2F%2Ffonts.googleapis.com%2Fcss%3Ffamily%3DArchitects%2BDaughter;strokeColor=#bababa;strokeWidth=2;" parent="1" vertex="1">
          <mxGeometry x="72.5" y="728" width="75" height="20" as="geometry" />
        </mxCell>
        <mxCell id="EzXioo47F4SOr7nf9TOk-18" value="Icon" style="rounded=0;whiteSpace=wrap;html=1;sketch=1;hachureGap=4;jiggle=2;curveFitting=1;fontFamily=Architects Daughter;fontSource=https%3A%2F%2Ffonts.googleapis.com%2Fcss%3Ffamily%3DArchitects%2BDaughter;strokeColor=#bababa;strokeWidth=2;" parent="1" vertex="1">
          <mxGeometry x="72.5" y="698" width="75" height="20" as="geometry" />
        </mxCell>
        <mxCell id="EzXioo47F4SOr7nf9TOk-19" value="Icon" style="rounded=0;whiteSpace=wrap;html=1;sketch=1;hachureGap=4;jiggle=2;curveFitting=1;fontFamily=Architects Daughter;fontSource=https%3A%2F%2Ffonts.googleapis.com%2Fcss%3Ffamily%3DArchitects%2BDaughter;strokeColor=#bababa;strokeWidth=2;" parent="1" vertex="1">
          <mxGeometry x="72.5" y="648" width="75" height="20" as="geometry" />
        </mxCell>
        <mxCell id="EzXioo47F4SOr7nf9TOk-20" value="Icon" style="rounded=0;whiteSpace=wrap;html=1;sketch=1;hachureGap=4;jiggle=2;curveFitting=1;fontFamily=Architects Daughter;fontSource=https%3A%2F%2Ffonts.googleapis.com%2Fcss%3Ffamily%3DArchitects%2BDaughter;strokeColor=#bababa;strokeWidth=2;" parent="1" vertex="1">
          <mxGeometry x="72.5" y="618" width="75" height="20" as="geometry" />
        </mxCell>
        <mxCell id="EzXioo47F4SOr7nf9TOk-21" value="Icon" style="rounded=0;whiteSpace=wrap;html=1;sketch=1;hachureGap=4;jiggle=2;curveFitting=1;fontFamily=Architects Daughter;fontSource=https%3A%2F%2Ffonts.googleapis.com%2Fcss%3Ffamily%3DArchitects%2BDaughter;strokeColor=#bababa;strokeWidth=2;" parent="1" vertex="1">
          <mxGeometry x="75" y="558" width="75" height="20" as="geometry" />
        </mxCell>
        <mxCell id="EzXioo47F4SOr7nf9TOk-22" value="Icon" style="rounded=0;whiteSpace=wrap;html=1;sketch=1;hachureGap=4;jiggle=2;curveFitting=1;fontFamily=Architects Daughter;fontSource=https%3A%2F%2Ffonts.googleapis.com%2Fcss%3Ffamily%3DArchitects%2BDaughter;strokeColor=#bababa;strokeWidth=2;" parent="1" vertex="1">
          <mxGeometry x="75" y="528" width="75" height="20" as="geometry" />
        </mxCell>
        <mxCell id="EzXioo47F4SOr7nf9TOk-23" value="" style="rounded=0;whiteSpace=wrap;html=1;sketch=1;hachureGap=4;jiggle=2;curveFitting=1;fontFamily=Architects Daughter;fontSource=https%3A%2F%2Ffonts.googleapis.com%2Fcss%3Ffamily%3DArchitects%2BDaughter;strokeColor=#5d6ef4;strokeWidth=2;" parent="1" vertex="1">
          <mxGeometry x="190" y="422" width="580" height="38" as="geometry" />
        </mxCell>
        <mxCell id="EzXioo47F4SOr7nf9TOk-24" value="Horizontal&lt;br&gt;Container" style="rounded=0;whiteSpace=wrap;html=1;sketch=1;hachureGap=4;jiggle=2;curveFitting=1;fontFamily=Architects Daughter;fontSource=https%3A%2F%2Ffonts.googleapis.com%2Fcss%3Ffamily%3DArchitects%2BDaughter;strokeColor=#5d6ef4;strokeWidth=2;" parent="1" vertex="1">
          <mxGeometry x="190" y="470" width="580" height="310" as="geometry" />
        </mxCell>
        <mxCell id="EzXioo47F4SOr7nf9TOk-25" value="" style="rounded=0;whiteSpace=wrap;html=1;sketch=1;hachureGap=4;jiggle=2;curveFitting=1;fontFamily=Architects Daughter;fontSource=https%3A%2F%2Ffonts.googleapis.com%2Fcss%3Ffamily%3DArchitects%2BDaughter;strokeColor=#ff7b00;strokeWidth=2;" parent="1" vertex="1">
          <mxGeometry x="200" y="480" width="190" height="290" as="geometry" />
        </mxCell>
        <mxCell id="EzXioo47F4SOr7nf9TOk-26" value="" style="rounded=0;whiteSpace=wrap;html=1;sketch=1;hachureGap=4;jiggle=2;curveFitting=1;fontFamily=Architects Daughter;fontSource=https%3A%2F%2Ffonts.googleapis.com%2Fcss%3Ffamily%3DArchitects%2BDaughter;strokeColor=#ff7b00;strokeWidth=2;" parent="1" vertex="1">
          <mxGeometry x="400" y="480" width="360" height="290" as="geometry" />
        </mxCell>
        <mxCell id="EzXioo47F4SOr7nf9TOk-27" value="Title" style="rounded=0;whiteSpace=wrap;html=1;sketch=1;hachureGap=4;jiggle=2;curveFitting=1;fontFamily=Architects Daughter;fontSource=https%3A%2F%2Ffonts.googleapis.com%2Fcss%3Ffamily%3DArchitects%2BDaughter;strokeColor=#bababa;strokeWidth=2;" parent="1" vertex="1">
          <mxGeometry x="200" y="431" width="110" height="20" as="geometry" />
        </mxCell>
        <mxCell id="EzXioo47F4SOr7nf9TOk-28" value="Icon" style="rounded=0;whiteSpace=wrap;html=1;sketch=1;hachureGap=4;jiggle=2;curveFitting=1;fontFamily=Architects Daughter;fontSource=https%3A%2F%2Ffonts.googleapis.com%2Fcss%3Ffamily%3DArchitects%2BDaughter;strokeColor=#bababa;strokeWidth=2;" parent="1" vertex="1">
          <mxGeometry x="685" y="431" width="75" height="20" as="geometry" />
        </mxCell>
        <mxCell id="EzXioo47F4SOr7nf9TOk-29" value="Overview" style="text;html=1;align=center;verticalAlign=middle;whiteSpace=wrap;rounded=0;fontFamily=Architects Daughter;fontSource=https%3A%2F%2Ffonts.googleapis.com%2Fcss%3Ffamily%3DArchitects%2BDaughter;" parent="1" vertex="1">
          <mxGeometry x="190" y="490" width="116" height="28" as="geometry" />
        </mxCell>
        <mxCell id="EzXioo47F4SOr7nf9TOk-30" value="" style="rounded=0;whiteSpace=wrap;html=1;sketch=1;hachureGap=4;jiggle=2;curveFitting=1;fontFamily=Architects Daughter;fontSource=https%3A%2F%2Ffonts.googleapis.com%2Fcss%3Ffamily%3DArchitects%2BDaughter;strokeColor=#ff7b00;strokeWidth=2;" parent="1" vertex="1">
          <mxGeometry x="410" y="490" width="340" height="130" as="geometry" />
        </mxCell>
        <mxCell id="EzXioo47F4SOr7nf9TOk-31" value="" style="rounded=0;whiteSpace=wrap;html=1;sketch=1;hachureGap=4;jiggle=2;curveFitting=1;fontFamily=Architects Daughter;fontSource=https%3A%2F%2Ffonts.googleapis.com%2Fcss%3Ffamily%3DArchitects%2BDaughter;strokeColor=#ff7b00;strokeWidth=2;" parent="1" vertex="1">
          <mxGeometry x="410" y="640" width="340" height="120" as="geometry" />
        </mxCell>
        <mxCell id="EzXioo47F4SOr7nf9TOk-32" value="Demographics" style="text;html=1;align=center;verticalAlign=middle;whiteSpace=wrap;rounded=0;fontFamily=Architects Daughter;fontSource=https%3A%2F%2Ffonts.googleapis.com%2Fcss%3Ffamily%3DArchitects%2BDaughter;" parent="1" vertex="1">
          <mxGeometry x="400" y="492" width="116" height="28" as="geometry" />
        </mxCell>
        <mxCell id="EzXioo47F4SOr7nf9TOk-33" value="Income" style="text;html=1;align=center;verticalAlign=middle;whiteSpace=wrap;rounded=0;fontFamily=Architects Daughter;fontSource=https%3A%2F%2Ffonts.googleapis.com%2Fcss%3Ffamily%3DArchitects%2BDaughter;" parent="1" vertex="1">
          <mxGeometry x="390" y="640" width="116" height="28" as="geometry" />
        </mxCell>
        <mxCell id="EzXioo47F4SOr7nf9TOk-34" value="" style="rounded=0;whiteSpace=wrap;html=1;sketch=1;hachureGap=4;jiggle=2;curveFitting=1;fontFamily=Architects Daughter;fontSource=https%3A%2F%2Ffonts.googleapis.com%2Fcss%3Ffamily%3DArchitects%2BDaughter;strokeColor=#5d6ef4;strokeWidth=2;" parent="1" vertex="1">
          <mxGeometry x="420" y="520" width="320" height="90" as="geometry" />
        </mxCell>
        <mxCell id="EzXioo47F4SOr7nf9TOk-35" value="Chart" style="rounded=0;whiteSpace=wrap;html=1;sketch=1;hachureGap=4;jiggle=2;curveFitting=1;fontFamily=Architects Daughter;fontSource=https%3A%2F%2Ffonts.googleapis.com%2Fcss%3Ffamily%3DArchitects%2BDaughter;strokeColor=#bababa;strokeWidth=2;" parent="1" vertex="1">
          <mxGeometry x="430" y="528" width="90" height="72" as="geometry" />
        </mxCell>
        <mxCell id="EzXioo47F4SOr7nf9TOk-42" value="Chart" style="rounded=0;whiteSpace=wrap;html=1;sketch=1;hachureGap=4;jiggle=2;curveFitting=1;fontFamily=Architects Daughter;fontSource=https%3A%2F%2Ffonts.googleapis.com%2Fcss%3Ffamily%3DArchitects%2BDaughter;strokeColor=#bababa;strokeWidth=2;" parent="1" vertex="1">
          <mxGeometry x="640" y="528" width="90" height="72" as="geometry" />
        </mxCell>
        <mxCell id="EzXioo47F4SOr7nf9TOk-43" value="Chart" style="rounded=0;whiteSpace=wrap;html=1;sketch=1;hachureGap=4;jiggle=2;curveFitting=1;fontFamily=Architects Daughter;fontSource=https%3A%2F%2Ffonts.googleapis.com%2Fcss%3Ffamily%3DArchitects%2BDaughter;strokeColor=#bababa;strokeWidth=2;" parent="1" vertex="1">
          <mxGeometry x="530" y="528" width="94" height="72" as="geometry" />
        </mxCell>
        <mxCell id="EzXioo47F4SOr7nf9TOk-44" value="" style="rounded=0;whiteSpace=wrap;html=1;sketch=1;hachureGap=4;jiggle=2;curveFitting=1;fontFamily=Architects Daughter;fontSource=https%3A%2F%2Ffonts.googleapis.com%2Fcss%3Ffamily%3DArchitects%2BDaughter;strokeColor=#5d6ef4;strokeWidth=2;" parent="1" vertex="1">
          <mxGeometry x="425" y="670" width="320" height="80" as="geometry" />
        </mxCell>
        <mxCell id="EzXioo47F4SOr7nf9TOk-53" style="edgeStyle=orthogonalEdgeStyle;rounded=0;sketch=1;hachureGap=4;jiggle=2;curveFitting=1;orthogonalLoop=1;jettySize=auto;html=1;exitX=0.5;exitY=1;exitDx=0;exitDy=0;entryX=0.5;entryY=0;entryDx=0;entryDy=0;fontFamily=Architects Daughter;fontSource=https%3A%2F%2Ffonts.googleapis.com%2Fcss%3Ffamily%3DArchitects%2BDaughter;" parent="1" source="EzXioo47F4SOr7nf9TOk-45" target="EzXioo47F4SOr7nf9TOk-49" edge="1">
          <mxGeometry relative="1" as="geometry" />
        </mxCell>
        <mxCell id="EzXioo47F4SOr7nf9TOk-45" value="Chart" style="rounded=0;whiteSpace=wrap;html=1;sketch=1;hachureGap=4;jiggle=2;curveFitting=1;fontFamily=Architects Daughter;fontSource=https%3A%2F%2Ffonts.googleapis.com%2Fcss%3Ffamily%3DArchitects%2BDaughter;strokeColor=#bababa;strokeWidth=2;" parent="1" vertex="1">
          <mxGeometry x="440" y="680" width="130" height="59" as="geometry" />
        </mxCell>
        <mxCell id="EzXioo47F4SOr7nf9TOk-48" value="Chart" style="rounded=0;whiteSpace=wrap;html=1;sketch=1;hachureGap=4;jiggle=2;curveFitting=1;fontFamily=Architects Daughter;fontSource=https%3A%2F%2Ffonts.googleapis.com%2Fcss%3Ffamily%3DArchitects%2BDaughter;strokeColor=#bababa;strokeWidth=2;" parent="1" vertex="1">
          <mxGeometry x="580" y="680" width="150" height="60" as="geometry" />
        </mxCell>
        <mxCell id="EzXioo47F4SOr7nf9TOk-49" value="" style="rounded=0;whiteSpace=wrap;html=1;sketch=1;hachureGap=4;jiggle=2;curveFitting=1;fontFamily=Architects Daughter;fontSource=https%3A%2F%2Ffonts.googleapis.com%2Fcss%3Ffamily%3DArchitects%2BDaughter;strokeColor=#ff7b00;strokeWidth=2;" parent="1" vertex="1">
          <mxGeometry x="410" y="830" width="190" height="170" as="geometry" />
        </mxCell>
        <mxCell id="EzXioo47F4SOr7nf9TOk-50" value="Title" style="text;html=1;align=center;verticalAlign=middle;whiteSpace=wrap;rounded=0;fontFamily=Architects Daughter;fontSource=https%3A%2F%2Ffonts.googleapis.com%2Fcss%3Ffamily%3DArchitects%2BDaughter;" parent="1" vertex="1">
          <mxGeometry x="390" y="840" width="116" height="28" as="geometry" />
        </mxCell>
        <mxCell id="EzXioo47F4SOr7nf9TOk-51" value="Chart" style="rounded=0;whiteSpace=wrap;html=1;sketch=1;hachureGap=4;jiggle=2;curveFitting=1;fontFamily=Architects Daughter;fontSource=https%3A%2F%2Ffonts.googleapis.com%2Fcss%3Ffamily%3DArchitects%2BDaughter;strokeColor=#bababa;strokeWidth=2;" parent="1" vertex="1">
          <mxGeometry x="440" y="870" width="130" height="90" as="geometry" />
        </mxCell>
        <mxCell id="EzXioo47F4SOr7nf9TOk-52" style="edgeStyle=orthogonalEdgeStyle;rounded=0;sketch=1;hachureGap=4;jiggle=2;curveFitting=1;orthogonalLoop=1;jettySize=auto;html=1;exitX=0.5;exitY=1;exitDx=0;exitDy=0;fontFamily=Architects Daughter;fontSource=https%3A%2F%2Ffonts.googleapis.com%2Fcss%3Ffamily%3DArchitects%2BDaughter;" parent="1" source="EzXioo47F4SOr7nf9TOk-49" target="EzXioo47F4SOr7nf9TOk-49" edge="1">
          <mxGeometry relative="1" as="geometry" />
        </mxCell>
        <mxCell id="EzXioo47F4SOr7nf9TOk-54" value="Chart" style="rounded=0;whiteSpace=wrap;html=1;sketch=1;hachureGap=4;jiggle=2;curveFitting=1;fontFamily=Architects Daughter;fontSource=https%3A%2F%2Ffonts.googleapis.com%2Fcss%3Ffamily%3DArchitects%2BDaughter;strokeColor=#bababa;strokeWidth=2;" parent="1" vertex="1">
          <mxGeometry x="210" y="528" width="170" height="49" as="geometry" />
        </mxCell>
        <mxCell id="EzXioo47F4SOr7nf9TOk-55" value="Chart" style="rounded=0;whiteSpace=wrap;html=1;sketch=1;hachureGap=4;jiggle=2;curveFitting=1;fontFamily=Architects Daughter;fontSource=https%3A%2F%2Ffonts.googleapis.com%2Fcss%3Ffamily%3DArchitects%2BDaughter;strokeColor=#bababa;strokeWidth=2;" parent="1" vertex="1">
          <mxGeometry x="210" y="585" width="170" height="49" as="geometry" />
        </mxCell>
        <mxCell id="EzXioo47F4SOr7nf9TOk-56" value="Chart" style="rounded=0;whiteSpace=wrap;html=1;sketch=1;hachureGap=4;jiggle=2;curveFitting=1;fontFamily=Architects Daughter;fontSource=https%3A%2F%2Ffonts.googleapis.com%2Fcss%3Ffamily%3DArchitects%2BDaughter;strokeColor=#bababa;strokeWidth=2;" parent="1" vertex="1">
          <mxGeometry x="210" y="647" width="170" height="49" as="geometry" />
        </mxCell>
        <mxCell id="EzXioo47F4SOr7nf9TOk-57" value="Chart" style="rounded=0;whiteSpace=wrap;html=1;sketch=1;hachureGap=4;jiggle=2;curveFitting=1;fontFamily=Architects Daughter;fontSource=https%3A%2F%2Ffonts.googleapis.com%2Fcss%3Ffamily%3DArchitects%2BDaughter;strokeColor=#bababa;strokeWidth=2;" parent="1" vertex="1">
          <mxGeometry x="210" y="705" width="170" height="49" as="geometry" />
        </mxCell>
        <mxCell id="H-JO2pR7W067srRRhPa5-1" value="Horizontal&lt;br&gt;Container" style="rounded=0;whiteSpace=wrap;html=1;sketch=1;hachureGap=4;jiggle=2;curveFitting=1;fontFamily=Architects Daughter;fontSource=https%3A%2F%2Ffonts.googleapis.com%2Fcss%3Ffamily%3DArchitects%2BDaughter;strokeColor=#5d6ef4;strokeWidth=2;" vertex="1" parent="1">
          <mxGeometry x="43" y="1150" width="120" height="60" as="geometry" />
        </mxCell>
        <mxCell id="H-JO2pR7W067srRRhPa5-2" value="Verticall&lt;br&gt;Container" style="rounded=0;whiteSpace=wrap;html=1;sketch=1;hachureGap=4;jiggle=2;curveFitting=1;fontFamily=Architects Daughter;fontSource=https%3A%2F%2Ffonts.googleapis.com%2Fcss%3Ffamily%3DArchitects%2BDaughter;strokeColor=#ff7b00;strokeWidth=2;" vertex="1" parent="1">
          <mxGeometry x="173" y="1150" width="120" height="60" as="geometry" />
        </mxCell>
        <mxCell id="H-JO2pR7W067srRRhPa5-3" value="Object" style="rounded=0;whiteSpace=wrap;html=1;sketch=1;hachureGap=4;jiggle=2;curveFitting=1;fontFamily=Architects Daughter;fontSource=https%3A%2F%2Ffonts.googleapis.com%2Fcss%3Ffamily%3DArchitects%2BDaughter;strokeColor=#bababa;strokeWidth=2;" vertex="1" parent="1">
          <mxGeometry x="303" y="1150" width="120" height="60" as="geometry" />
        </mxCell>
        <mxCell id="H-JO2pR7W067srRRhPa5-4" value="Horizontal&lt;br&gt;Container" style="rounded=0;whiteSpace=wrap;html=1;sketch=1;hachureGap=4;jiggle=2;curveFitting=1;fontFamily=Architects Daughter;fontSource=https%3A%2F%2Ffonts.googleapis.com%2Fcss%3Ffamily%3DArchitects%2BDaughter;strokeColor=#5d6ef4;strokeWidth=2;" vertex="1" parent="1">
          <mxGeometry x="43" y="1260" width="807" height="410" as="geometry" />
        </mxCell>
        <mxCell id="H-JO2pR7W067srRRhPa5-5" value="Whole Dashboard" style="text;html=1;align=center;verticalAlign=middle;whiteSpace=wrap;rounded=0;fontFamily=Architects Daughter;fontSource=https%3A%2F%2Ffonts.googleapis.com%2Fcss%3Ffamily%3DArchitects%2BDaughter;" vertex="1" parent="1">
          <mxGeometry x="30" y="1240" width="120" height="25" as="geometry" />
        </mxCell>
        <mxCell id="H-JO2pR7W067srRRhPa5-6" value="" style="rounded=0;whiteSpace=wrap;html=1;sketch=1;hachureGap=4;jiggle=2;curveFitting=1;fontFamily=Architects Daughter;fontSource=https%3A%2F%2Ffonts.googleapis.com%2Fcss%3Ffamily%3DArchitects%2BDaughter;strokeColor=#ff7b00;strokeWidth=2;" vertex="1" parent="1">
          <mxGeometry x="64.25" y="1280" width="120" height="380" as="geometry" />
        </mxCell>
        <mxCell id="H-JO2pR7W067srRRhPa5-7" value="" style="rounded=0;whiteSpace=wrap;html=1;sketch=1;hachureGap=4;jiggle=2;curveFitting=1;fontFamily=Architects Daughter;fontSource=https%3A%2F%2Ffonts.googleapis.com%2Fcss%3Ffamily%3DArchitects%2BDaughter;strokeColor=#ff7b00;strokeWidth=2;" vertex="1" parent="1">
          <mxGeometry x="193" y="1280" width="647" height="380" as="geometry" />
        </mxCell>
        <mxCell id="H-JO2pR7W067srRRhPa5-8" value="Navigation" style="text;html=1;align=center;verticalAlign=middle;whiteSpace=wrap;rounded=0;fontFamily=Architects Daughter;fontSource=https%3A%2F%2Ffonts.googleapis.com%2Fcss%3Ffamily%3DArchitects%2BDaughter;" vertex="1" parent="1">
          <mxGeometry x="33" y="1260" width="117" height="25" as="geometry" />
        </mxCell>
        <mxCell id="H-JO2pR7W067srRRhPa5-9" value="Header + Charts" style="text;html=1;align=center;verticalAlign=middle;whiteSpace=wrap;rounded=0;fontFamily=Architects Daughter;fontSource=https%3A%2F%2Ffonts.googleapis.com%2Fcss%3Ffamily%3DArchitects%2BDaughter;" vertex="1" parent="1">
          <mxGeometry x="183" y="1260" width="120" height="25" as="geometry" />
        </mxCell>
        <mxCell id="H-JO2pR7W067srRRhPa5-10" value="Logo" style="rounded=0;whiteSpace=wrap;html=1;sketch=1;hachureGap=4;jiggle=2;curveFitting=1;fontFamily=Architects Daughter;fontSource=https%3A%2F%2Ffonts.googleapis.com%2Fcss%3Ffamily%3DArchitects%2BDaughter;strokeColor=#bababa;strokeWidth=2;" vertex="1" parent="1">
          <mxGeometry x="89.25" y="1330" width="70" height="30" as="geometry" />
        </mxCell>
        <mxCell id="H-JO2pR7W067srRRhPa5-11" value="Icon" style="rounded=0;whiteSpace=wrap;html=1;sketch=1;hachureGap=4;jiggle=2;curveFitting=1;fontFamily=Architects Daughter;fontSource=https%3A%2F%2Ffonts.googleapis.com%2Fcss%3Ffamily%3DArchitects%2BDaughter;strokeColor=#bababa;strokeWidth=2;" vertex="1" parent="1">
          <mxGeometry x="85.5" y="1598" width="75" height="20" as="geometry" />
        </mxCell>
        <mxCell id="H-JO2pR7W067srRRhPa5-12" value="Icon" style="rounded=0;whiteSpace=wrap;html=1;sketch=1;hachureGap=4;jiggle=2;curveFitting=1;fontFamily=Architects Daughter;fontSource=https%3A%2F%2Ffonts.googleapis.com%2Fcss%3Ffamily%3DArchitects%2BDaughter;strokeColor=#bababa;strokeWidth=2;" vertex="1" parent="1">
          <mxGeometry x="85.5" y="1568" width="75" height="20" as="geometry" />
        </mxCell>
        <mxCell id="H-JO2pR7W067srRRhPa5-13" value="Icon" style="rounded=0;whiteSpace=wrap;html=1;sketch=1;hachureGap=4;jiggle=2;curveFitting=1;fontFamily=Architects Daughter;fontSource=https%3A%2F%2Ffonts.googleapis.com%2Fcss%3Ffamily%3DArchitects%2BDaughter;strokeColor=#bababa;strokeWidth=2;" vertex="1" parent="1">
          <mxGeometry x="85.5" y="1518" width="75" height="20" as="geometry" />
        </mxCell>
        <mxCell id="H-JO2pR7W067srRRhPa5-14" value="Icon" style="rounded=0;whiteSpace=wrap;html=1;sketch=1;hachureGap=4;jiggle=2;curveFitting=1;fontFamily=Architects Daughter;fontSource=https%3A%2F%2Ffonts.googleapis.com%2Fcss%3Ffamily%3DArchitects%2BDaughter;strokeColor=#bababa;strokeWidth=2;" vertex="1" parent="1">
          <mxGeometry x="85.5" y="1488" width="75" height="20" as="geometry" />
        </mxCell>
        <mxCell id="H-JO2pR7W067srRRhPa5-15" value="Icon" style="rounded=0;whiteSpace=wrap;html=1;sketch=1;hachureGap=4;jiggle=2;curveFitting=1;fontFamily=Architects Daughter;fontSource=https%3A%2F%2Ffonts.googleapis.com%2Fcss%3Ffamily%3DArchitects%2BDaughter;strokeColor=#bababa;strokeWidth=2;" vertex="1" parent="1">
          <mxGeometry x="88" y="1428" width="75" height="20" as="geometry" />
        </mxCell>
        <mxCell id="H-JO2pR7W067srRRhPa5-16" value="Icon" style="rounded=0;whiteSpace=wrap;html=1;sketch=1;hachureGap=4;jiggle=2;curveFitting=1;fontFamily=Architects Daughter;fontSource=https%3A%2F%2Ffonts.googleapis.com%2Fcss%3Ffamily%3DArchitects%2BDaughter;strokeColor=#bababa;strokeWidth=2;" vertex="1" parent="1">
          <mxGeometry x="88" y="1398" width="75" height="20" as="geometry" />
        </mxCell>
        <mxCell id="H-JO2pR7W067srRRhPa5-17" value="" style="rounded=0;whiteSpace=wrap;html=1;sketch=1;hachureGap=4;jiggle=2;curveFitting=1;fontFamily=Architects Daughter;fontSource=https%3A%2F%2Ffonts.googleapis.com%2Fcss%3Ffamily%3DArchitects%2BDaughter;strokeColor=#5d6ef4;strokeWidth=2;" vertex="1" parent="1">
          <mxGeometry x="203" y="1292" width="627" height="38" as="geometry" />
        </mxCell>
        <mxCell id="H-JO2pR7W067srRRhPa5-21" value="Title" style="rounded=0;whiteSpace=wrap;html=1;sketch=1;hachureGap=4;jiggle=2;curveFitting=1;fontFamily=Architects Daughter;fontSource=https%3A%2F%2Ffonts.googleapis.com%2Fcss%3Ffamily%3DArchitects%2BDaughter;strokeColor=#bababa;strokeWidth=2;" vertex="1" parent="1">
          <mxGeometry x="213" y="1297" width="110" height="27" as="geometry" />
        </mxCell>
        <mxCell id="H-JO2pR7W067srRRhPa5-22" value="Icon" style="rounded=0;whiteSpace=wrap;html=1;sketch=1;hachureGap=4;jiggle=2;curveFitting=1;fontFamily=Architects Daughter;fontSource=https%3A%2F%2Ffonts.googleapis.com%2Fcss%3Ffamily%3DArchitects%2BDaughter;strokeColor=#bababa;strokeWidth=2;" vertex="1" parent="1">
          <mxGeometry x="740" y="1301" width="80" height="20" as="geometry" />
        </mxCell>
        <mxCell id="H-JO2pR7W067srRRhPa5-39" value="" style="rounded=0;whiteSpace=wrap;html=1;sketch=1;hachureGap=4;jiggle=2;curveFitting=1;fontFamily=Architects Daughter;fontSource=https%3A%2F%2Ffonts.googleapis.com%2Fcss%3Ffamily%3DArchitects%2BDaughter;strokeColor=#ff7b00;strokeWidth=2;" vertex="1" parent="1">
          <mxGeometry x="203" y="1338" width="627" height="312" as="geometry" />
        </mxCell>
        <mxCell id="H-JO2pR7W067srRRhPa5-40" value="Title" style="rounded=0;whiteSpace=wrap;html=1;sketch=1;hachureGap=4;jiggle=2;curveFitting=1;fontFamily=Architects Daughter;fontSource=https%3A%2F%2Ffonts.googleapis.com%2Fcss%3Ffamily%3DArchitects%2BDaughter;strokeColor=#bababa;strokeWidth=2;" vertex="1" parent="1">
          <mxGeometry x="213" y="1350" width="607" height="20" as="geometry" />
        </mxCell>
        <mxCell id="H-JO2pR7W067srRRhPa5-41" value="" style="rounded=0;whiteSpace=wrap;html=1;sketch=1;hachureGap=4;jiggle=2;curveFitting=1;fontFamily=Architects Daughter;fontSource=https%3A%2F%2Ffonts.googleapis.com%2Fcss%3Ffamily%3DArchitects%2BDaughter;strokeColor=#5d6ef4;strokeWidth=2;" vertex="1" parent="1">
          <mxGeometry x="210" y="1378" width="610" height="142" as="geometry" />
        </mxCell>
        <mxCell id="H-JO2pR7W067srRRhPa5-53" value="Object" style="rounded=0;whiteSpace=wrap;html=1;sketch=1;hachureGap=4;jiggle=2;curveFitting=1;fontFamily=Architects Daughter;fontSource=https%3A%2F%2Ffonts.googleapis.com%2Fcss%3Ffamily%3DArchitects%2BDaughter;strokeColor=#bababa;strokeWidth=2;" vertex="1" parent="1">
          <mxGeometry x="213" y="1530" width="607" height="110" as="geometry" />
        </mxCell>
        <mxCell id="H-JO2pR7W067srRRhPa5-62" value="Verticall&lt;br&gt;Container" style="rounded=0;whiteSpace=wrap;html=1;sketch=1;hachureGap=4;jiggle=2;curveFitting=1;fontFamily=Architects Daughter;fontSource=https%3A%2F%2Ffonts.googleapis.com%2Fcss%3Ffamily%3DArchitects%2BDaughter;strokeColor=#ff7b00;strokeWidth=2;" vertex="1" parent="1">
          <mxGeometry x="221" y="1388" width="140" height="120" as="geometry" />
        </mxCell>
        <mxCell id="H-JO2pR7W067srRRhPa5-63" value="" style="rounded=0;whiteSpace=wrap;html=1;sketch=1;hachureGap=4;jiggle=2;curveFitting=1;fontFamily=Architects Daughter;fontSource=https%3A%2F%2Ffonts.googleapis.com%2Fcss%3Ffamily%3DArchitects%2BDaughter;strokeColor=#ff7b00;strokeWidth=2;" vertex="1" parent="1">
          <mxGeometry x="231" y="1427" width="120" height="72.5" as="geometry" />
        </mxCell>
        <mxCell id="H-JO2pR7W067srRRhPa5-64" value="Filter&lt;span style=&quot;color: rgba(0, 0, 0, 0); font-family: monospace; font-size: 0px; text-align: start; text-wrap: nowrap;&quot;&gt;%3CmxGraphModel%3E%3Croot%3E%3CmxCell%20id%3D%220%22%2F%3E%3CmxCell%20id%3D%221%22%20parent%3D%220%22%2F%3E%3CmxCell%20id%3D%222%22%20value%3D%22Object%22%20style%3D%22rounded%3D0%3BwhiteSpace%3Dwrap%3Bhtml%3D1%3Bsketch%3D1%3BhachureGap%3D4%3Bjiggle%3D2%3BcurveFitting%3D1%3BfontFamily%3DArchitects%20Daughter%3BfontSource%3Dhttps%253A%252F%252Ffonts.googleapis.com%252Fcss%253Ffamily%253DArchitects%252BDaughter%3BstrokeColor%3D%23bababa%3BstrokeWidth%3D2%3B%22%20vertex%3D%221%22%20parent%3D%221%22%3E%3CmxGeometry%20x%3D%22303%22%20y%3D%221150%22%20width%3D%22120%22%20height%3D%2260%22%20as%3D%22geometry%22%2F%3E%3C%2FmxCell%3E%3C%2Froot%3E%3C%2FmxGraphModel%3E&lt;/span&gt;" style="rounded=0;whiteSpace=wrap;html=1;sketch=1;hachureGap=4;jiggle=2;curveFitting=1;fontFamily=Architects Daughter;fontSource=https%3A%2F%2Ffonts.googleapis.com%2Fcss%3Ffamily%3DArchitects%2BDaughter;strokeColor=#bababa;strokeWidth=2;" vertex="1" parent="1">
          <mxGeometry x="243" y="1435.75" width="100" height="23" as="geometry" />
        </mxCell>
        <mxCell id="H-JO2pR7W067srRRhPa5-65" value="Filter&lt;span style=&quot;color: rgba(0, 0, 0, 0); font-family: monospace; font-size: 0px; text-align: start; text-wrap: nowrap;&quot;&gt;%3CmxGraphModel%3E%3Croot%3E%3CmxCell%20id%3D%220%22%2F%3E%3CmxCell%20id%3D%221%22%20parent%3D%220%22%2F%3E%3CmxCell%20id%3D%222%22%20value%3D%22Object%22%20style%3D%22rounded%3D0%3BwhiteSpace%3Dwrap%3Bhtml%3D1%3Bsketch%3D1%3BhachureGap%3D4%3Bjiggle%3D2%3BcurveFitting%3D1%3BfontFamily%3DArchitects%20Daughter%3BfontSource%3Dhttps%253A%252F%252Ffonts.googleapis.com%252Fcss%253Ffamily%253DArchitects%252BDaughter%3BstrokeColor%3D%23bababa%3BstrokeWidth%3D2%3B%22%20vertex%3D%221%22%20parent%3D%221%22%3E%3CmxGeometry%20x%3D%22303%22%20y%3D%221150%22%20width%3D%22120%22%20height%3D%2260%22%20as%3D%22geometry%22%2F%3E%3C%2FmxCell%3E%3C%2Froot%3E%3C%2FmxGraphModel%3E&lt;/span&gt;" style="rounded=0;whiteSpace=wrap;html=1;sketch=1;hachureGap=4;jiggle=2;curveFitting=1;fontFamily=Architects Daughter;fontSource=https%3A%2F%2Ffonts.googleapis.com%2Fcss%3Ffamily%3DArchitects%2BDaughter;strokeColor=#bababa;strokeWidth=2;" vertex="1" parent="1">
          <mxGeometry x="243" y="1467.75" width="100" height="21" as="geometry" />
        </mxCell>
        <mxCell id="H-JO2pR7W067srRRhPa5-66" value="" style="rounded=0;whiteSpace=wrap;html=1;sketch=1;hachureGap=4;jiggle=2;curveFitting=1;fontFamily=Architects Daughter;fontSource=https%3A%2F%2Ffonts.googleapis.com%2Fcss%3Ffamily%3DArchitects%2BDaughter;strokeColor=#5d6ef4;strokeWidth=2;" vertex="1" parent="1">
          <mxGeometry x="231" y="1398" width="120" height="23" as="geometry" />
        </mxCell>
        <mxCell id="H-JO2pR7W067srRRhPa5-67" value="Title" style="rounded=0;whiteSpace=wrap;html=1;sketch=1;hachureGap=4;jiggle=2;curveFitting=1;fontFamily=Architects Daughter;fontSource=https%3A%2F%2Ffonts.googleapis.com%2Fcss%3Ffamily%3DArchitects%2BDaughter;strokeColor=#bababa;strokeWidth=2;" vertex="1" parent="1">
          <mxGeometry x="239" y="1404" width="51" height="10" as="geometry" />
        </mxCell>
        <mxCell id="H-JO2pR7W067srRRhPa5-68" value="Icon" style="rounded=0;whiteSpace=wrap;html=1;sketch=1;hachureGap=4;jiggle=2;curveFitting=1;fontFamily=Architects Daughter;fontSource=https%3A%2F%2Ffonts.googleapis.com%2Fcss%3Ffamily%3DArchitects%2BDaughter;strokeColor=#bababa;strokeWidth=2;" vertex="1" parent="1">
          <mxGeometry x="297" y="1404" width="47" height="10" as="geometry" />
        </mxCell>
        <mxCell id="H-JO2pR7W067srRRhPa5-69" value="Verticall&lt;br&gt;Container" style="rounded=0;whiteSpace=wrap;html=1;sketch=1;hachureGap=4;jiggle=2;curveFitting=1;fontFamily=Architects Daughter;fontSource=https%3A%2F%2Ffonts.googleapis.com%2Fcss%3Ffamily%3DArchitects%2BDaughter;strokeColor=#ff7b00;strokeWidth=2;" vertex="1" parent="1">
          <mxGeometry x="368" y="1388.25" width="140" height="120" as="geometry" />
        </mxCell>
        <mxCell id="H-JO2pR7W067srRRhPa5-70" value="" style="rounded=0;whiteSpace=wrap;html=1;sketch=1;hachureGap=4;jiggle=2;curveFitting=1;fontFamily=Architects Daughter;fontSource=https%3A%2F%2Ffonts.googleapis.com%2Fcss%3Ffamily%3DArchitects%2BDaughter;strokeColor=#ff7b00;strokeWidth=2;" vertex="1" parent="1">
          <mxGeometry x="378" y="1427.25" width="120" height="72.5" as="geometry" />
        </mxCell>
        <mxCell id="H-JO2pR7W067srRRhPa5-71" value="Filter&lt;span style=&quot;color: rgba(0, 0, 0, 0); font-family: monospace; font-size: 0px; text-align: start; text-wrap: nowrap;&quot;&gt;%3CmxGraphModel%3E%3Croot%3E%3CmxCell%20id%3D%220%22%2F%3E%3CmxCell%20id%3D%221%22%20parent%3D%220%22%2F%3E%3CmxCell%20id%3D%222%22%20value%3D%22Object%22%20style%3D%22rounded%3D0%3BwhiteSpace%3Dwrap%3Bhtml%3D1%3Bsketch%3D1%3BhachureGap%3D4%3Bjiggle%3D2%3BcurveFitting%3D1%3BfontFamily%3DArchitects%20Daughter%3BfontSource%3Dhttps%253A%252F%252Ffonts.googleapis.com%252Fcss%253Ffamily%253DArchitects%252BDaughter%3BstrokeColor%3D%23bababa%3BstrokeWidth%3D2%3B%22%20vertex%3D%221%22%20parent%3D%221%22%3E%3CmxGeometry%20x%3D%22303%22%20y%3D%221150%22%20width%3D%22120%22%20height%3D%2260%22%20as%3D%22geometry%22%2F%3E%3C%2FmxCell%3E%3C%2Froot%3E%3C%2FmxGraphModel%3E&lt;/span&gt;" style="rounded=0;whiteSpace=wrap;html=1;sketch=1;hachureGap=4;jiggle=2;curveFitting=1;fontFamily=Architects Daughter;fontSource=https%3A%2F%2Ffonts.googleapis.com%2Fcss%3Ffamily%3DArchitects%2BDaughter;strokeColor=#bababa;strokeWidth=2;" vertex="1" parent="1">
          <mxGeometry x="390" y="1436" width="100" height="23" as="geometry" />
        </mxCell>
        <mxCell id="H-JO2pR7W067srRRhPa5-72" value="Filter&lt;span style=&quot;color: rgba(0, 0, 0, 0); font-family: monospace; font-size: 0px; text-align: start; text-wrap: nowrap;&quot;&gt;%3CmxGraphModel%3E%3Croot%3E%3CmxCell%20id%3D%220%22%2F%3E%3CmxCell%20id%3D%221%22%20parent%3D%220%22%2F%3E%3CmxCell%20id%3D%222%22%20value%3D%22Object%22%20style%3D%22rounded%3D0%3BwhiteSpace%3Dwrap%3Bhtml%3D1%3Bsketch%3D1%3BhachureGap%3D4%3Bjiggle%3D2%3BcurveFitting%3D1%3BfontFamily%3DArchitects%20Daughter%3BfontSource%3Dhttps%253A%252F%252Ffonts.googleapis.com%252Fcss%253Ffamily%253DArchitects%252BDaughter%3BstrokeColor%3D%23bababa%3BstrokeWidth%3D2%3B%22%20vertex%3D%221%22%20parent%3D%221%22%3E%3CmxGeometry%20x%3D%22303%22%20y%3D%221150%22%20width%3D%22120%22%20height%3D%2260%22%20as%3D%22geometry%22%2F%3E%3C%2FmxCell%3E%3C%2Froot%3E%3C%2FmxGraphModel%3E&lt;/span&gt;" style="rounded=0;whiteSpace=wrap;html=1;sketch=1;hachureGap=4;jiggle=2;curveFitting=1;fontFamily=Architects Daughter;fontSource=https%3A%2F%2Ffonts.googleapis.com%2Fcss%3Ffamily%3DArchitects%2BDaughter;strokeColor=#bababa;strokeWidth=2;" vertex="1" parent="1">
          <mxGeometry x="390" y="1468" width="100" height="21" as="geometry" />
        </mxCell>
        <mxCell id="H-JO2pR7W067srRRhPa5-73" value="" style="rounded=0;whiteSpace=wrap;html=1;sketch=1;hachureGap=4;jiggle=2;curveFitting=1;fontFamily=Architects Daughter;fontSource=https%3A%2F%2Ffonts.googleapis.com%2Fcss%3Ffamily%3DArchitects%2BDaughter;strokeColor=#5d6ef4;strokeWidth=2;" vertex="1" parent="1">
          <mxGeometry x="378" y="1398.25" width="120" height="23" as="geometry" />
        </mxCell>
        <mxCell id="H-JO2pR7W067srRRhPa5-74" value="Title" style="rounded=0;whiteSpace=wrap;html=1;sketch=1;hachureGap=4;jiggle=2;curveFitting=1;fontFamily=Architects Daughter;fontSource=https%3A%2F%2Ffonts.googleapis.com%2Fcss%3Ffamily%3DArchitects%2BDaughter;strokeColor=#bababa;strokeWidth=2;" vertex="1" parent="1">
          <mxGeometry x="386" y="1404.25" width="51" height="10" as="geometry" />
        </mxCell>
        <mxCell id="H-JO2pR7W067srRRhPa5-75" value="Icon" style="rounded=0;whiteSpace=wrap;html=1;sketch=1;hachureGap=4;jiggle=2;curveFitting=1;fontFamily=Architects Daughter;fontSource=https%3A%2F%2Ffonts.googleapis.com%2Fcss%3Ffamily%3DArchitects%2BDaughter;strokeColor=#bababa;strokeWidth=2;" vertex="1" parent="1">
          <mxGeometry x="444" y="1404.25" width="47" height="10" as="geometry" />
        </mxCell>
        <mxCell id="H-JO2pR7W067srRRhPa5-76" value="Verticall&lt;br&gt;Container" style="rounded=0;whiteSpace=wrap;html=1;sketch=1;hachureGap=4;jiggle=2;curveFitting=1;fontFamily=Architects Daughter;fontSource=https%3A%2F%2Ffonts.googleapis.com%2Fcss%3Ffamily%3DArchitects%2BDaughter;strokeColor=#ff7b00;strokeWidth=2;" vertex="1" parent="1">
          <mxGeometry x="516" y="1389" width="140" height="120" as="geometry" />
        </mxCell>
        <mxCell id="H-JO2pR7W067srRRhPa5-77" value="" style="rounded=0;whiteSpace=wrap;html=1;sketch=1;hachureGap=4;jiggle=2;curveFitting=1;fontFamily=Architects Daughter;fontSource=https%3A%2F%2Ffonts.googleapis.com%2Fcss%3Ffamily%3DArchitects%2BDaughter;strokeColor=#ff7b00;strokeWidth=2;" vertex="1" parent="1">
          <mxGeometry x="526" y="1428" width="120" height="72.5" as="geometry" />
        </mxCell>
        <mxCell id="H-JO2pR7W067srRRhPa5-78" value="Filter&lt;span style=&quot;color: rgba(0, 0, 0, 0); font-family: monospace; font-size: 0px; text-align: start; text-wrap: nowrap;&quot;&gt;%3CmxGraphModel%3E%3Croot%3E%3CmxCell%20id%3D%220%22%2F%3E%3CmxCell%20id%3D%221%22%20parent%3D%220%22%2F%3E%3CmxCell%20id%3D%222%22%20value%3D%22Object%22%20style%3D%22rounded%3D0%3BwhiteSpace%3Dwrap%3Bhtml%3D1%3Bsketch%3D1%3BhachureGap%3D4%3Bjiggle%3D2%3BcurveFitting%3D1%3BfontFamily%3DArchitects%20Daughter%3BfontSource%3Dhttps%253A%252F%252Ffonts.googleapis.com%252Fcss%253Ffamily%253DArchitects%252BDaughter%3BstrokeColor%3D%23bababa%3BstrokeWidth%3D2%3B%22%20vertex%3D%221%22%20parent%3D%221%22%3E%3CmxGeometry%20x%3D%22303%22%20y%3D%221150%22%20width%3D%22120%22%20height%3D%2260%22%20as%3D%22geometry%22%2F%3E%3C%2FmxCell%3E%3C%2Froot%3E%3C%2FmxGraphModel%3E&lt;/span&gt;" style="rounded=0;whiteSpace=wrap;html=1;sketch=1;hachureGap=4;jiggle=2;curveFitting=1;fontFamily=Architects Daughter;fontSource=https%3A%2F%2Ffonts.googleapis.com%2Fcss%3Ffamily%3DArchitects%2BDaughter;strokeColor=#bababa;strokeWidth=2;" vertex="1" parent="1">
          <mxGeometry x="538" y="1436.75" width="100" height="23" as="geometry" />
        </mxCell>
        <mxCell id="H-JO2pR7W067srRRhPa5-79" value="Filter&lt;span style=&quot;color: rgba(0, 0, 0, 0); font-family: monospace; font-size: 0px; text-align: start; text-wrap: nowrap;&quot;&gt;%3CmxGraphModel%3E%3Croot%3E%3CmxCell%20id%3D%220%22%2F%3E%3CmxCell%20id%3D%221%22%20parent%3D%220%22%2F%3E%3CmxCell%20id%3D%222%22%20value%3D%22Object%22%20style%3D%22rounded%3D0%3BwhiteSpace%3Dwrap%3Bhtml%3D1%3Bsketch%3D1%3BhachureGap%3D4%3Bjiggle%3D2%3BcurveFitting%3D1%3BfontFamily%3DArchitects%20Daughter%3BfontSource%3Dhttps%253A%252F%252Ffonts.googleapis.com%252Fcss%253Ffamily%253DArchitects%252BDaughter%3BstrokeColor%3D%23bababa%3BstrokeWidth%3D2%3B%22%20vertex%3D%221%22%20parent%3D%221%22%3E%3CmxGeometry%20x%3D%22303%22%20y%3D%221150%22%20width%3D%22120%22%20height%3D%2260%22%20as%3D%22geometry%22%2F%3E%3C%2FmxCell%3E%3C%2Froot%3E%3C%2FmxGraphModel%3E&lt;/span&gt;" style="rounded=0;whiteSpace=wrap;html=1;sketch=1;hachureGap=4;jiggle=2;curveFitting=1;fontFamily=Architects Daughter;fontSource=https%3A%2F%2Ffonts.googleapis.com%2Fcss%3Ffamily%3DArchitects%2BDaughter;strokeColor=#bababa;strokeWidth=2;" vertex="1" parent="1">
          <mxGeometry x="538" y="1468.75" width="100" height="21" as="geometry" />
        </mxCell>
        <mxCell id="H-JO2pR7W067srRRhPa5-80" value="" style="rounded=0;whiteSpace=wrap;html=1;sketch=1;hachureGap=4;jiggle=2;curveFitting=1;fontFamily=Architects Daughter;fontSource=https%3A%2F%2Ffonts.googleapis.com%2Fcss%3Ffamily%3DArchitects%2BDaughter;strokeColor=#5d6ef4;strokeWidth=2;" vertex="1" parent="1">
          <mxGeometry x="526" y="1399" width="120" height="23" as="geometry" />
        </mxCell>
        <mxCell id="H-JO2pR7W067srRRhPa5-81" value="Title" style="rounded=0;whiteSpace=wrap;html=1;sketch=1;hachureGap=4;jiggle=2;curveFitting=1;fontFamily=Architects Daughter;fontSource=https%3A%2F%2Ffonts.googleapis.com%2Fcss%3Ffamily%3DArchitects%2BDaughter;strokeColor=#bababa;strokeWidth=2;" vertex="1" parent="1">
          <mxGeometry x="534" y="1405" width="51" height="10" as="geometry" />
        </mxCell>
        <mxCell id="H-JO2pR7W067srRRhPa5-82" value="Icon" style="rounded=0;whiteSpace=wrap;html=1;sketch=1;hachureGap=4;jiggle=2;curveFitting=1;fontFamily=Architects Daughter;fontSource=https%3A%2F%2Ffonts.googleapis.com%2Fcss%3Ffamily%3DArchitects%2BDaughter;strokeColor=#bababa;strokeWidth=2;" vertex="1" parent="1">
          <mxGeometry x="592" y="1405" width="47" height="10" as="geometry" />
        </mxCell>
        <mxCell id="H-JO2pR7W067srRRhPa5-83" value="Verticall&lt;br&gt;Container" style="rounded=0;whiteSpace=wrap;html=1;sketch=1;hachureGap=4;jiggle=2;curveFitting=1;fontFamily=Architects Daughter;fontSource=https%3A%2F%2Ffonts.googleapis.com%2Fcss%3Ffamily%3DArchitects%2BDaughter;strokeColor=#ff7b00;strokeWidth=2;" vertex="1" parent="1">
          <mxGeometry x="663.5" y="1389" width="140" height="120" as="geometry" />
        </mxCell>
        <mxCell id="H-JO2pR7W067srRRhPa5-84" value="" style="rounded=0;whiteSpace=wrap;html=1;sketch=1;hachureGap=4;jiggle=2;curveFitting=1;fontFamily=Architects Daughter;fontSource=https%3A%2F%2Ffonts.googleapis.com%2Fcss%3Ffamily%3DArchitects%2BDaughter;strokeColor=#ff7b00;strokeWidth=2;" vertex="1" parent="1">
          <mxGeometry x="673.5" y="1428" width="120" height="72.5" as="geometry" />
        </mxCell>
        <mxCell id="H-JO2pR7W067srRRhPa5-85" value="Filter&lt;span style=&quot;color: rgba(0, 0, 0, 0); font-family: monospace; font-size: 0px; text-align: start; text-wrap: nowrap;&quot;&gt;%3CmxGraphModel%3E%3Croot%3E%3CmxCell%20id%3D%220%22%2F%3E%3CmxCell%20id%3D%221%22%20parent%3D%220%22%2F%3E%3CmxCell%20id%3D%222%22%20value%3D%22Object%22%20style%3D%22rounded%3D0%3BwhiteSpace%3Dwrap%3Bhtml%3D1%3Bsketch%3D1%3BhachureGap%3D4%3Bjiggle%3D2%3BcurveFitting%3D1%3BfontFamily%3DArchitects%20Daughter%3BfontSource%3Dhttps%253A%252F%252Ffonts.googleapis.com%252Fcss%253Ffamily%253DArchitects%252BDaughter%3BstrokeColor%3D%23bababa%3BstrokeWidth%3D2%3B%22%20vertex%3D%221%22%20parent%3D%221%22%3E%3CmxGeometry%20x%3D%22303%22%20y%3D%221150%22%20width%3D%22120%22%20height%3D%2260%22%20as%3D%22geometry%22%2F%3E%3C%2FmxCell%3E%3C%2Froot%3E%3C%2FmxGraphModel%3E&lt;/span&gt;" style="rounded=0;whiteSpace=wrap;html=1;sketch=1;hachureGap=4;jiggle=2;curveFitting=1;fontFamily=Architects Daughter;fontSource=https%3A%2F%2Ffonts.googleapis.com%2Fcss%3Ffamily%3DArchitects%2BDaughter;strokeColor=#bababa;strokeWidth=2;" vertex="1" parent="1">
          <mxGeometry x="685.5" y="1436.75" width="100" height="23" as="geometry" />
        </mxCell>
        <mxCell id="H-JO2pR7W067srRRhPa5-86" value="Filter&lt;span style=&quot;color: rgba(0, 0, 0, 0); font-family: monospace; font-size: 0px; text-align: start; text-wrap: nowrap;&quot;&gt;%3CmxGraphModel%3E%3Croot%3E%3CmxCell%20id%3D%220%22%2F%3E%3CmxCell%20id%3D%221%22%20parent%3D%220%22%2F%3E%3CmxCell%20id%3D%222%22%20value%3D%22Object%22%20style%3D%22rounded%3D0%3BwhiteSpace%3Dwrap%3Bhtml%3D1%3Bsketch%3D1%3BhachureGap%3D4%3Bjiggle%3D2%3BcurveFitting%3D1%3BfontFamily%3DArchitects%20Daughter%3BfontSource%3Dhttps%253A%252F%252Ffonts.googleapis.com%252Fcss%253Ffamily%253DArchitects%252BDaughter%3BstrokeColor%3D%23bababa%3BstrokeWidth%3D2%3B%22%20vertex%3D%221%22%20parent%3D%221%22%3E%3CmxGeometry%20x%3D%22303%22%20y%3D%221150%22%20width%3D%22120%22%20height%3D%2260%22%20as%3D%22geometry%22%2F%3E%3C%2FmxCell%3E%3C%2Froot%3E%3C%2FmxGraphModel%3E&lt;/span&gt;" style="rounded=0;whiteSpace=wrap;html=1;sketch=1;hachureGap=4;jiggle=2;curveFitting=1;fontFamily=Architects Daughter;fontSource=https%3A%2F%2Ffonts.googleapis.com%2Fcss%3Ffamily%3DArchitects%2BDaughter;strokeColor=#bababa;strokeWidth=2;" vertex="1" parent="1">
          <mxGeometry x="685.5" y="1468.75" width="100" height="21" as="geometry" />
        </mxCell>
        <mxCell id="H-JO2pR7W067srRRhPa5-87" value="" style="rounded=0;whiteSpace=wrap;html=1;sketch=1;hachureGap=4;jiggle=2;curveFitting=1;fontFamily=Architects Daughter;fontSource=https%3A%2F%2Ffonts.googleapis.com%2Fcss%3Ffamily%3DArchitects%2BDaughter;strokeColor=#5d6ef4;strokeWidth=2;" vertex="1" parent="1">
          <mxGeometry x="673.5" y="1399" width="120" height="23" as="geometry" />
        </mxCell>
        <mxCell id="H-JO2pR7W067srRRhPa5-88" value="Title" style="rounded=0;whiteSpace=wrap;html=1;sketch=1;hachureGap=4;jiggle=2;curveFitting=1;fontFamily=Architects Daughter;fontSource=https%3A%2F%2Ffonts.googleapis.com%2Fcss%3Ffamily%3DArchitects%2BDaughter;strokeColor=#bababa;strokeWidth=2;" vertex="1" parent="1">
          <mxGeometry x="681.5" y="1405" width="51" height="10" as="geometry" />
        </mxCell>
        <mxCell id="H-JO2pR7W067srRRhPa5-89" value="Icon" style="rounded=0;whiteSpace=wrap;html=1;sketch=1;hachureGap=4;jiggle=2;curveFitting=1;fontFamily=Architects Daughter;fontSource=https%3A%2F%2Ffonts.googleapis.com%2Fcss%3Ffamily%3DArchitects%2BDaughter;strokeColor=#bababa;strokeWidth=2;" vertex="1" parent="1">
          <mxGeometry x="739.5" y="1405" width="47" height="10" as="geometry" />
        </mxCell>
      </root>
    </mxGraphModel>
  </diagram>
</mxfile>
